# xmcd
#
# Track frame offsets: 
#        150
#        23498
#        41403
#        59800
#        77783
#        92773
#        108844
#        130151
#        152984
#        175250
#        195077
#        213824
#        228997
#        247450
#        266956
#        290093
#        308770
#        327544
#
# Disc length: 4556 seconds
#
# Revision: 1
# Processed by: cddbd v1.5.2PL0 Copyright (c) Steve Scherf et al.
# Submitted via: ExactAudioCopyFreeDBPlugin 1.0
#
DISCID=0311ca12
DTITLE=Hapka and Horáček - Benefice černých koní
DYEAR=2010
DGENRE=Blues
TTITLE0=V Penzionu Svet
TTITLE1=Uneseny
TTITLE2=Pod plynarnou
TTITLE3=Vitejte v Absurdistanu
TTITLE4=Kralicek Azurit
TTITLE5=Vana plna fialek
TTITLE6=Parnik se potapi kapela hraje
TTITLE7=Se tremi slepci v bufetu
TTITLE8=Divam se divam
TTITLE9=Snezna sova
TTITLE10=Strazce plamene
TTITLE11=Prislo mi to vhod
TTITLE12=Denim blue
TTITLE13=Hladiny
TTITLE14=Stari
TTITLE15=Burty pivo nanavist
TTITLE16=Rozeznavam
TTITLE17=Kdo by se dival nazpatek
EXTD=YEAR: 2010
EXTT0=
EXTT1=
EXTT2=
EXTT3=
EXTT4=
EXTT5=
EXTT6=
EXTT7=
EXTT8=
EXTT9=
EXTT10=
EXTT11=
EXTT12=
EXTT13=
EXTT14=
EXTT15=
EXTT16=
EXTT17=
PLAYORDER=
